<svg xmlns="http://www.w3.org/2000/svg" viewBox="0 0 32 32" fill="none">
  <!-- stem -->
  <path d="M16 27 L16 19" stroke="#388E3C" stroke-width="2" stroke-linecap="round"/>
  <!-- leaf -->
  <path d="M16 22 C16 22 11 21 11 17 C11 17 16 17 16 22Z" fill="#66BB6A"/>
  <!-- petals (5 petals) -->
  <ellipse cx="16" cy="12" rx="3.5" ry="5.5" fill="#F48FB1" transform="rotate(0,16,16)"/>
  <ellipse cx="16" cy="12" rx="3.5" ry="5.5" fill="#F48FB1" transform="rotate(72,16,16)"/>
  <ellipse cx="16" cy="12" rx="3.5" ry="5.5" fill="#F48FB1" transform="rotate(144,16,16)"/>
  <ellipse cx="16" cy="12" rx="3.5" ry="5.5" fill="#F48FB1" transform="rotate(216,16,16)"/>
  <ellipse cx="16" cy="12" rx="3.5" ry="5.5" fill="#F48FB1" transform="rotate(288,16,16)"/>
  <!-- center -->
  <circle cx="16" cy="16" r="4" fill="#FDD835"/>
  <circle cx="16" cy="16" r="2.2" fill="#F9A825"/>
  <!-- ground -->
  <rect x="5" y="27" width="22" height="2.5" rx="1.25" fill="#5D4037"/>
</svg>
