<svg xmlns="http://www.w3.org/2000/svg" viewBox="0 0 32 32" fill="none">
  <!-- background thin blades -->
  <path d="M7 27 C8 27 8 22 6 14" stroke="#9CCC65" stroke-width="1.5" stroke-linecap="round" fill="none"/>
  <path d="M25 27 C24 27 24 22 26 14" stroke="#9CCC65" stroke-width="1.5" stroke-linecap="round" fill="none"/>
  <!-- mid blades -->
  <path d="M11 27 C11 27 9 21 11 13 C12 11 13 11 13 11 C13 11 14 13 12 21 L11 27Z" fill="#7CB342"/>
  <path d="M21 27 C21 27 23 21 21 13 C20 11 19 11 19 11 C19 11 18 13 20 21 L21 27Z" fill="#7CB342"/>
  <!-- center blades (taller, graceful arcs) -->
  <path d="M14 27 C13 27 11 20 13 11 C14 8 15 7 15 7 C15 7 16 10 15 17 L14 27Z" fill="#558B2F"/>
  <path d="M18 27 C19 27 21 20 19 11 C18 8 17 7 17 7 C17 7 16 10 17 17 L18 27Z" fill="#558B2F"/>
  <!-- center accent blade -->
  <path d="M16 27 C15.2 27 15 20 16 10 C16 8.5 16 8 16 8 C16 8 16 8.5 16 10 C17 20 16.8 27 16 27Z" fill="#33691E"/>
  <!-- ground line -->
  <rect x="5" y="27" width="22" height="2" rx="1" fill="#2E7D32"/>
</svg>
