<svg xmlns="http://www.w3.org/2000/svg" viewBox="0 0 32 32" fill="none">
  <!-- drop shadow -->
  <ellipse cx="16" cy="29" rx="7" ry="2" fill="#0D47A1" opacity="0.15"/>
  <!-- main water drop -->
  <path d="M16 4 C16 4 6 16 6 22 C6 27.5 10.5 30 16 30 C21.5 30 26 27.5 26 22 C26 16 16 4 16 4Z" fill="#1E88E5"/>
  <!-- left edge shading -->
  <path d="M16 4 C16 4 6 16 6 22 C6 27.5 10.5 30 16 30 C10.5 30 8 26 8 22 C8 16 16 4 16 4Z" fill="#1565C0" opacity="0.4"/>
  <!-- highlight -->
  <ellipse cx="12.5" cy="17" rx="2.5" ry="4" fill="white" opacity="0.4" transform="rotate(-15,12.5,17)"/>
  <circle cx="11.5" cy="14.5" r="1.2" fill="white" opacity="0.3"/>
</svg>
